<?xml version="1.0" encoding="UTF-8" standalone="no"?>
<!DOCTYPE svg PUBLIC "-//W3C//DTD SVG 1.1//EN" "http://www.w3.org/Graphics/SVG/1.1/DTD/svg11.dtd">
<svg height="100%" stroke-miterlimit="10" style="fill-rule:nonzero;clip-rule:evenodd;stroke-linecap:round;stroke-linejoin:round;" version="1.1" viewBox="0 0 280 280" width="100%" xml:space="preserve" xmlns="http://www.w3.org/2000/svg" xmlns:vectornator="http://vectornator.io" xmlns:xlink="http://www.w3.org/1999/xlink">
<defs/>
<g id="Untitled" vectornator:layerName="Untitled">
<path d="M181.6 97.8C181.2 98.5 180 99 178.9 99C177.5 99 177 99.7 177 101.7C177 110 156.4 114 114.8 113.8C89 113.6 88.1 113.8 84.3 119.7C82.8 122 82.5 124.7 82.5 135.5C82.5 148.1 82.4 148.6 79.8 152.5C76.7 156.9 76 164 78.1 169.9C79.8 174.9 81.1 172.3 81.6 162.9C81.9 158.3 82.8 152 83.6 148.9C84.6 144.7 84.8 141.7 84.1 136.9C83.2 129.7 84 125.2 85.2 131.5C86.5 139 86.1 151.7 84.4 156.1C82.8 159.9 82.8 160.4 84.5 163.8C87.8 170.9 91 180.3 91 183.2C91 188 92.6 190 96.5 190C98.4 190 100 190.4 100 191C100 191.5 101.8 192 104 192C108.5 192 108.9 191.2 106 188.5C102.8 185.6 99.9 176.4 100.2 170.2C100.5 165.5 100.8 164.6 102.8 163.9C104.7 163.2 105.3 163.5 106.2 165.5C107.7 168.8 108.7 168.6 109.5 165C110.1 162.3 113 160.6 113 163C113 163.5 113.5 164 114 164C114.6 164 115 163 115 161.7C115 158.2 116.8 157 119.9 158.1C123.1 159.4 135.1 159.3 140.3 158.1C142.3 157.6 144.2 157.6 144.5 158C145.7 159.9 147 174.1 146.5 179C146.1 182.1 146.3 185.7 146.9 187.3C147.8 189.5 148.6 190 151.5 190C153.4 190 155 190.4 155 191C155 191.5 157 192 159.5 192C164.6 192 165.5 190.2 161.8 187.5C159.8 186.2 159.5 185.1 159.5 179.7C159.6 176.3 160 170.3 160.4 166.3C161.2 159.6 161.4 159.2 164.1 158.6C166 158.3 167.8 156.7 169.4 154.1C170.8 152 172.4 150 173 149.8C173.6 149.6 175 146.4 176 142.6C178.4 134.2 180.4 131 183.2 131C186 131 194 127.1 194 125.8C194 125.2 195.6 125 198.3 125.4C202 126 202.9 125.7 204.9 123.6C206.2 122.2 207.1 120.7 206.9 120.1C206.1 118.1 190.2 102.5 187.4 101C185.8 100.2 184 98.9 183.4 98.1C182.6 97.1 182.1 97 181.6 97.8ZM153.9 178.2C154 180.9 153.6 183 153.1 183C151.3 183 150.3 174 151.7 170.3C152.3 168.7 152.5 168.8 153.1 171C153.5 172.4 153.8 175.6 153.9 178.2ZM97 181.4C97 184 96.4 183.2 95.6 179.5C95.1 177.3 95.2 176.9 96 178C96.5 178.8 97 180.4 97 181.4Z" fill="#ffffff" fill-rule="nonzero" opacity="1" stroke="none"/>
</g>
</svg>
